<svg xmlns="http://www.w3.org/2000/svg" viewBox="270 40 140 140" role="img" aria-label="digiterior mark">
  <title>digiterior mark</title>
  <desc>Ishigaki ring emblem: eight irregular stones forming a loose, resilient circle.</desc>
  <polygon points="406,110 390.6,152.4 372.2,137 382,110" fill="#1A237E"/>
  <polygon points="383.8,153.8 345.4,171.8 343.5,149.8 368.3,138.3" fill="#b8960c"/>
  <polygon points="340,176 297.6,160.6 312.4,142.9 340,153" fill="#0f6e56"/>
  <polygon points="295.5,154.5 277.3,115.5 299.2,113.6 311,139" fill="#c0550a"/>
  <polygon points="274,110 289.4,67.6 307.8,83 298,110" fill="#1a1814"/>
  <polygon points="296.2,66.2 334.6,48.2 336.5,70.2 311.7,81.7" fill="#F9A825"/>
  <polygon points="340,44 382.4,59.4 367.6,77.1 340,67" fill="#3949AB"/>
  <polygon points="384.5,65.5 402.7,104.5 380.8,106.4 369,81" fill="#1B6B5A"/>
</svg>
